# xmcd CD database file
#
# Track frame offsets:
#	150
#	34938
#	55284
#	82822
#	103068
#	140518
#	172598
#	203110
#	229703
#
# Disc length: 3338 seconds
#
# Revision: 0
# Processed by: cddbd v1.5.2PL0 Copyright (c) Steve Scherf et al.
# Submitted via: CDex 1.51
#
DISCID=6c0d0809
DTITLE=Klaus Doldinger´s Passport - Inner Blue
DYEAR=2011
DGENRE=Jazz
TTITLE0=Wide Angel
TTITLE1=Dark Flame
TTITLE2=Reng Deng
TTITLE3=Inner Blue
TTITLE4=Mangroove
TTITLE5=Odd and Even
TTITLE6=Altogether
TTITLE7=Chez le Granier
TTITLE8=Mandragora
EXTD=YEAR: 2011
EXTT0=
EXTT1=
EXTT2=
EXTT3=
EXTT4=
EXTT5=
EXTT6=
EXTT7=
EXTT8=
PLAYORDER=
